<?xml version="1.0" standalone="no"?>
<!DOCTYPE svg PUBLIC "-//W3C//DTD SVG 20010904//EN"
 "http://www.w3.org/TR/2001/REC-SVG-20010904/DTD/svg10.dtd">
<svg version="1.0" xmlns="http://www.w3.org/2000/svg"
 width="512.000000pt" height="512.000000pt" viewBox="0 0 512.000000 512.000000"
 preserveAspectRatio="xMidYMid meet">
<metadata>
Created by potrace 1.13, written by Peter Selinger 2001-2015
</metadata>
<g transform="translate(0.000000,512.000000) scale(0.100000,-0.100000)"
fill="#06a488" stroke="none">
<path d="M2549 4987 c-33 -11 -1940 -1039 -1935 -1044 5 -5 2346 593 2346 600
0 17 -194 364 -219 390 -50 54 -127 76 -192 54z"/>
<path d="M3944 4601 c-17 -3 -652 -163 -1411 -356 l-1380 -350 1580 -3 c869
-1 1582 0 1584 2 6 5 -136 557 -154 599 -21 48 -71 93 -120 106 -41 12 -51 12
-99 2z"/>
<path d="M115 3706 c-41 -18 -92 -77 -105 -123 -8 -27 -10 -516 -8 -1683 l3
-1645 23 -38 c13 -20 45 -50 70 -65 l47 -27 2285 0 2285 0 47 27 c34 21 53 41
72 80 l26 52 0 393 0 393 -777 2 -778 3 -62 29 c-73 33 -147 107 -184 181
l-24 50 0 585 0 585 33 67 c40 81 110 148 190 180 l57 23 773 3 772 3 0 392
c0 360 -2 395 -19 432 -22 47 -64 89 -104 104 -20 8 -721 11 -2310 11 -1863
-1 -2288 -3 -2312 -14z"/>
<path d="M3315 2586 c-41 -18 -92 -77 -105 -123 -8 -26 -10 -203 -8 -564 l3
-525 28 -42 c15 -23 46 -52 70 -64 l42 -23 785 -3 c553 -2 800 0 837 8 64 14
123 67 141 126 9 30 12 178 12 555 0 479 -2 517 -19 554 -22 47 -64 89 -104
104 -45 17 -1643 14 -1682 -3z m702 -387 c232 -112 228 -442 -6 -556 -77 -38
-192 -40 -265 -4 -196 96 -241 354 -90 504 100 99 231 119 361 56z"/>
</g>
</svg>
