<?xml version="1.0" encoding="iso-8859-1"?>
<!-- Generator: Adobe Illustrator 16.0.0, SVG Export Plug-In . SVG Version: 6.00 Build 0)  -->
<!DOCTYPE svg PUBLIC "-//W3C//DTD SVG 1.1//EN" "http://www.w3.org/Graphics/SVG/1.1/DTD/svg11.dtd">
<svg version="1.1" id="Capa_1" xmlns="http://www.w3.org/2000/svg" xmlns:xlink="http://www.w3.org/1999/xlink" x="0px" y="0px"
	 width="418.734px" height="418.734px" viewBox="0 0 418.734 418.734" style="enable-background:new 0 0 418.734 418.734;"
	 xml:space="preserve">
<g fill="#06a488" stroke="none">
	<path d="M415.459,125.726l-29.88-22.405c-2.577-1.935-6.085-2.139-8.882-0.525c-2.888,1.677-6.741,1.203-9.087-1.14l-40.415-40.412
		c-0.414-0.42-0.809-0.979-1.233-1.758c-0.551-1.006-1.307-1.877-2.231-2.564l-40.62-30.457c-3.192-2.402-7.695-2.09-10.536,0.752
		l-58.823,58.818c-1.51,1.512-2.36,3.564-2.36,5.703c0,2.14,0.851,4.188,2.36,5.704l5.327,5.329L2.359,319.485
		C0.848,320.997,0,323.048,0,325.19c0,2.138,0.848,4.185,2.359,5.701l12.604,12.594c0,0,0.005,0,0.01,0.004l33.334,33.354
		c0.011,0.013,0.021,0.013,0.031,0.022l14.648,14.655c1.575,1.576,3.641,2.358,5.704,2.358c2.066,0,4.128-0.782,5.703-2.358
		c3.15-3.147,3.15-8.256,0-11.406l-7.897-7.895l6.037-4.253l9.882,9.881c1.575,1.574,3.637,2.355,5.703,2.355
		c2.063,0,4.126-0.781,5.701-2.355c3.152-3.145,3.152-8.258,0-11.403l-7.901-7.905l6.032-4.24l9.875,9.873
		c1.575,1.574,3.638,2.358,5.703,2.358c2.063,0,4.129-0.784,5.704-2.358c3.15-3.145,3.15-8.258,0-11.402l-7.897-7.9l6.031-4.251
		l9.879,9.884c1.575,1.576,3.641,2.358,5.704,2.358c2.065,0,4.128-0.782,5.703-2.358c3.15-3.145,3.15-8.258,0-11.4l-7.9-7.907
		l6.031-4.246l9.88,9.884c1.574,1.576,3.637,2.357,5.703,2.357c2.063,0,4.129-0.781,5.703-2.357c3.15-3.148,3.15-8.256,0-11.4
		l-7.903-7.905l6.042-4.259l9.88,9.881c1.575,1.574,3.641,2.361,5.703,2.361c2.066,0,4.129-0.787,5.704-2.361
		c3.15-3.145,3.15-8.253,0-11.397l-7.9-7.905l6.029-4.246l9.876,9.879c1.575,1.574,3.638,2.361,5.704,2.361
		c2.063,0,4.126-0.787,5.701-2.361c3.152-3.15,3.152-8.253,0-11.408l-7.9-7.899l6.037-4.252l9.874,9.879
		c1.575,1.576,3.638,2.363,5.704,2.363c2.063,0,4.129-0.787,5.704-2.363c3.149-3.149,3.149-8.258,0-11.406l-7.898-7.901l6.031-4.246
		l9.876,9.879c1.576,1.576,3.644,2.363,5.708,2.363c2.062,0,4.13-0.787,5.705-2.363c3.15-3.148,3.15-8.256,0-11.406l-7.895-7.9
		l6.025-4.247l9.881,9.875c1.574,1.574,3.631,2.361,5.7,2.361c2.062,0,4.127-0.787,5.7-2.361c3.15-3.145,3.15-8.258,0-11.402
		l-7.895-7.896l6.03-4.251l9.881,9.868c1.574,1.574,3.639,2.361,5.706,2.361c2.062,0,4.132-0.787,5.705-2.366
		c3.146-3.15,3.146-8.258-0.005-11.402l-7.895-7.89l6.026-4.252l9.113,9.118c1.574,1.576,3.644,2.357,5.706,2.357
		c2.062,0,4.131-0.781,5.705-2.357c3.15-3.145,3.15-8.258,0-11.402l-7.139-7.138l6.037-4.253l9.658,9.66
		c1.576,1.574,3.639,2.361,5.7,2.361c2.064,0,4.127-0.787,5.702-2.361c3.15-3.145,3.15-8.258,0-11.403l-7.681-7.679l6.195-4.368
		c0.006,0,0.006,0,0.006-0.005l8.461-5.956l15.423,15.432c1.574,1.574,3.633,2.355,5.7,2.355c2.064,0,4.127-0.781,5.701-2.355
		l75.372-75.367c1.657-1.65,2.509-3.938,2.34-6.272C418.492,129.275,417.323,127.13,415.459,125.726z M341.405,133.552
		c0,2.011-0.782,3.898-2.21,5.329l-8.273,8.273c-2.834,2.843-7.799,2.848-10.64-0.006l-40.437-40.428
		c-2.939-2.942-2.939-7.725,0-10.665l8.263-8.268c1.429-1.425,3.312-2.204,5.329-2.204c2.016,0,3.909,0.785,5.326,2.204
		l40.432,40.444C340.623,129.658,341.405,131.542,341.405,133.552z"/>
	<path d="M37.336,331.846c1.995,0,3.995-0.734,5.554-2.221l133.165-126.6c3.231-3.071,3.36-8.171,0.289-11.401
		c-3.063-3.231-8.175-3.359-11.394-0.286L31.785,317.946c-3.232,3.071-3.36,8.174-0.292,11.402
		C33.079,331.012,35.203,331.846,37.336,331.846z"/>
</g>
<g>
</g>
<g>
</g>
<g>
</g>
<g>
</g>
<g>
</g>
<g>
</g>
<g>
</g>
<g>
</g>
<g>
</g>
<g>
</g>
<g>
</g>
<g>
</g>
<g>
</g>
<g>
</g>
<g>
</g>
</svg>
